<svg width="1629px" height="826px"
 viewBox="0.00 0.00 1173.00 595.00" xmlns="http://www.w3.org/2000/svg" xmlns:xlink="http://www.w3.org/1999/xlink">
<g id="graph0" class="graph" transform="scale(0.5183958528331774 0.5183958528331774) rotate(0.0) translate(4.0 591.0)">
<title>%3</title>
<polygon fill="white" stroke="transparent" points="-4,4 -4,-591 1169,-591 1169,4 -4,4"/>
<text text-anchor="middle" x="582.5" y="-555" font-family="Times,serif" font-size="35.00">miniconnect</text>
<!-- :api -->
<g id="node1" class="node">
<title>:api</title>
<ellipse fill="#ff7043" stroke="black" cx="744" cy="-90" rx="27.9" ry="18"/>
<text text-anchor="middle" x="744" y="-86.3" font-family="Times,serif" font-size="14.00">:api</text>
</g>
<!-- :lang -->
<g id="node2" class="node">
<title>:lang</title>
<ellipse fill="#ff7043" stroke="black" cx="553" cy="-18" rx="33.6" ry="18"/>
<text text-anchor="middle" x="553" y="-14.3" font-family="Times,serif" font-size="14.00">:lang</text>
</g>
<!-- :api&#45;&gt;:lang -->
<g id="edge1" class="edge">
<title>:api&#45;&gt;:lang</title>
<path fill="none" stroke="black" d="M720.2,-80.28C687.52,-68.3 628.44,-46.65 589.98,-32.55"/>
<polygon fill="black" stroke="black" points="590.78,-29.12 580.19,-28.97 588.38,-35.69 590.78,-29.12"/>
</g>
<!-- :impl -->
<g id="node3" class="node">
<title>:impl</title>
<ellipse fill="#ff7043" stroke="black" cx="606" cy="-162" rx="34.39" ry="18"/>
<text text-anchor="middle" x="606" y="-158.3" font-family="Times,serif" font-size="14.00">:impl</text>
</g>
<!-- :impl&#45;&gt;:api -->
<g id="edge2" class="edge">
<title>:impl&#45;&gt;:api</title>
<path fill="none" stroke="black" d="M630.04,-148.81C653.18,-137.07 688.28,-119.26 713.41,-106.52"/>
<polygon fill="black" stroke="black" points="715.17,-109.55 722.5,-101.9 712,-103.31 715.17,-109.55"/>
</g>
<!-- :impl&#45;&gt;:lang -->
<g id="edge3" class="edge">
<title>:impl&#45;&gt;:lang</title>
<path fill="none" stroke="black" d="M599.71,-144.15C590.59,-119.71 573.59,-74.17 562.81,-45.29"/>
<polygon fill="black" stroke="black" points="566.06,-43.97 559.28,-35.82 559.5,-46.42 566.06,-43.97"/>
</g>
<!-- :jdbc -->
<g id="node4" class="node">
<title>:jdbc</title>
<polygon fill="#ff7043" stroke="black" points="291,-540 237,-540 237,-504 291,-504 291,-540"/>
<text text-anchor="middle" x="264" y="-518.3" font-family="Times,serif" font-size="14.00">:jdbc</text>
</g>
<!-- :jdbc&#45;&gt;:api -->
<g id="edge4" class="edge">
<title>:jdbc&#45;&gt;:api</title>
<path fill="none" stroke="black" d="M291.16,-521.05C385.47,-520.8 697.65,-516.25 783,-468 886.53,-409.47 897.36,-332.41 873,-216 865.97,-182.39 867.88,-169.6 845,-144 827.15,-124.02 799.96,-110.36 778.29,-101.92"/>
<polygon fill="black" stroke="black" points="779.37,-98.58 768.77,-98.4 776.94,-105.15 779.37,-98.58"/>
</g>
<!-- :jdbc&#45;&gt;:lang -->
<g id="edge5" class="edge">
<title>:jdbc&#45;&gt;:lang</title>
<path fill="none" stroke="black" d="M236.71,-520.54C193.79,-518.51 109.65,-509.11 54,-468 16.79,-440.51 0,-425.27 0,-379 0,-379 0,-379 0,-161 0,-56.05 378.4,-27.56 509.17,-20.85"/>
<polygon fill="black" stroke="black" points="509.43,-24.35 519.24,-20.35 509.08,-17.35 509.43,-24.35"/>
</g>
<!-- :jdbc&#45;&gt;:impl -->
<g id="edge6" class="edge">
<title>:jdbc&#45;&gt;:impl</title>
<path fill="none" stroke="black" stroke-dasharray="1,5" d="M291.23,-519.81C355.79,-516.43 515.49,-504.47 552,-468 627.75,-392.33 618.34,-249.87 610.41,-190.28"/>
<polygon fill="black" stroke="black" points="613.84,-189.56 608.97,-180.16 606.91,-190.55 613.84,-189.56"/>
</g>
<!-- :messenger -->
<g id="node5" class="node">
<title>:messenger</title>
<ellipse fill="#ff7043" stroke="black" cx="324" cy="-306" rx="64.19" ry="18"/>
<text text-anchor="middle" x="324" y="-302.3" font-family="Times,serif" font-size="14.00">:messenger</text>
</g>
<!-- :jdbc&#45;&gt;:messenger -->
<g id="edge7" class="edge">
<title>:jdbc&#45;&gt;:messenger</title>
<path fill="none" stroke="black" stroke-dasharray="1,5" d="M268.81,-503.85C279.21,-466.75 303.87,-378.81 316.4,-334.1"/>
<polygon fill="black" stroke="black" points="319.84,-334.81 319.17,-324.23 313.1,-332.92 319.84,-334.81"/>
</g>
<!-- :record -->
<g id="node6" class="node">
<title>:record</title>
<ellipse fill="#ff7043" stroke="black" cx="496" cy="-234" rx="44.39" ry="18"/>
<text text-anchor="middle" x="496" y="-230.3" font-family="Times,serif" font-size="14.00">:record</text>
</g>
<!-- :jdbc&#45;&gt;:record -->
<g id="edge8" class="edge">
<title>:jdbc&#45;&gt;:record</title>
<path fill="none" stroke="black" stroke-dasharray="1,5" d="M275.53,-503.93C282.45,-493.6 291.35,-480.12 299,-468 328.89,-420.62 328.9,-403.66 364,-360 393.15,-323.74 406.21,-319.99 440,-288 450.43,-278.12 461.96,-267.21 471.83,-257.87"/>
<polygon fill="black" stroke="black" points="474.48,-260.18 479.34,-250.77 469.67,-255.1 474.48,-260.18"/>
</g>
<!-- :util -->
<g id="node7" class="node">
<title>:util</title>
<ellipse fill="#ff7043" stroke="black" cx="130" cy="-162" rx="29.5" ry="18"/>
<text text-anchor="middle" x="130" y="-158.3" font-family="Times,serif" font-size="14.00">:util</text>
</g>
<!-- :jdbc&#45;&gt;:util -->
<g id="edge10" class="edge">
<title>:jdbc&#45;&gt;:util</title>
<path fill="none" stroke="black" stroke-dasharray="1,5" d="M236.74,-516.97C176.63,-506.39 38,-471.91 38,-379 38,-379 38,-379 38,-305 38,-264.03 39.34,-250.13 62,-216 71.64,-201.47 86.59,-189.19 100.02,-180.12"/>
<polygon fill="black" stroke="black" points="102.03,-182.99 108.55,-174.64 98.25,-177.1 102.03,-182.99"/>
</g>
<!-- :server -->
<g id="node8" class="node">
<title>:server</title>
<ellipse fill="#ff7043" stroke="black" cx="209" cy="-378" rx="43.59" ry="18"/>
<text text-anchor="middle" x="209" y="-374.3" font-family="Times,serif" font-size="14.00">:server</text>
</g>
<!-- :jdbc&#45;&gt;:server -->
<g id="edge9" class="edge">
<title>:jdbc&#45;&gt;:server</title>
<path fill="none" stroke="black" stroke-dasharray="1,5" d="M257.37,-503.87C247.91,-479.46 230.47,-434.43 219.32,-405.64"/>
<polygon fill="black" stroke="black" points="222.53,-404.25 215.66,-396.19 216.01,-406.78 222.53,-404.25"/>
</g>
<!-- :messenger&#45;&gt;:api -->
<g id="edge11" class="edge">
<title>:messenger&#45;&gt;:api</title>
<path fill="none" stroke="black" d="M335.71,-288.07C349.51,-268.95 373.9,-237.69 400,-216 449.31,-175.03 465.46,-167.78 525,-144 586.55,-119.42 662.55,-104.16 706.91,-96.65"/>
<polygon fill="black" stroke="black" points="707.65,-100.08 716.95,-94.99 706.51,-93.17 707.65,-100.08"/>
</g>
<!-- :messenger&#45;&gt;:lang -->
<g id="edge12" class="edge">
<title>:messenger&#45;&gt;:lang</title>
<path fill="none" stroke="black" d="M329.17,-288.01C335.3,-269.38 346.65,-239.09 362,-216 410.38,-143.22 487.51,-73.59 527.33,-39.96"/>
<polygon fill="black" stroke="black" points="529.82,-42.45 535.24,-33.35 525.33,-37.08 529.82,-42.45"/>
</g>
<!-- :messenger&#45;&gt;:impl -->
<g id="edge13" class="edge">
<title>:messenger&#45;&gt;:impl</title>
<path fill="none" stroke="black" stroke-dasharray="1,5" d="M348.01,-289.05C363.16,-278.8 383.01,-265 400,-252 419.8,-236.86 421.2,-228.07 443,-216 481.69,-194.58 530.4,-180.16 564.45,-171.84"/>
<polygon fill="black" stroke="black" points="565.6,-175.17 574.52,-169.46 563.98,-168.36 565.6,-175.17"/>
</g>
<!-- :messenger&#45;&gt;:record -->
<g id="edge14" class="edge">
<title>:messenger&#45;&gt;:record</title>
<path fill="none" stroke="black" stroke-dasharray="1,5" d="M358.81,-290.83C387.03,-279.35 426.81,-263.16 456.28,-251.17"/>
<polygon fill="black" stroke="black" points="457.9,-254.28 465.84,-247.27 455.26,-247.8 457.9,-254.28"/>
</g>
<!-- :messenger&#45;&gt;:util -->
<g id="edge15" class="edge">
<title>:messenger&#45;&gt;:util</title>
<path fill="none" stroke="black" stroke-dasharray="1,5" d="M314.17,-288.17C301.99,-268.57 279.55,-236.27 253,-216 226.9,-196.07 192.15,-182 166.25,-173.39"/>
<polygon fill="black" stroke="black" points="167.03,-169.96 156.44,-170.24 164.9,-176.63 167.03,-169.96"/>
</g>
<!-- :record&#45;&gt;:api -->
<g id="edge16" class="edge">
<title>:record&#45;&gt;:api</title>
<path fill="none" stroke="black" d="M504.26,-216.3C515.04,-196.2 535.8,-162.81 563,-144 606.57,-113.86 667.36,-100.65 706.2,-95.01"/>
<polygon fill="black" stroke="black" points="707.1,-98.42 716.55,-93.61 706.17,-91.48 707.1,-98.42"/>
</g>
<!-- :record&#45;&gt;:lang -->
<g id="edge17" class="edge">
<title>:record&#45;&gt;:lang</title>
<path fill="none" stroke="black" d="M500.57,-215.85C510.47,-178.66 533.99,-90.37 545.87,-45.77"/>
<polygon fill="black" stroke="black" points="549.3,-46.5 548.49,-35.94 542.53,-44.7 549.3,-46.5"/>
</g>
<!-- :record&#45;&gt;:impl -->
<g id="edge18" class="edge">
<title>:record&#45;&gt;:impl</title>
<path fill="none" stroke="black" stroke-dasharray="1,5" d="M518.79,-218.5C535.45,-207.9 558.19,-193.42 576.27,-181.92"/>
<polygon fill="black" stroke="black" points="578.17,-184.86 584.73,-176.54 574.41,-178.95 578.17,-184.86"/>
</g>
<!-- :record&#45;&gt;:util -->
<g id="edge19" class="edge">
<title>:record&#45;&gt;:util</title>
<path fill="none" stroke="black" stroke-dasharray="1,5" d="M456.83,-225.51C385.97,-211.96 237.37,-183.54 167.64,-170.2"/>
<polygon fill="black" stroke="black" points="168.03,-166.71 157.55,-168.27 166.71,-173.58 168.03,-166.71"/>
</g>
<!-- :util&#45;&gt;:lang -->
<g id="edge20" class="edge">
<title>:util&#45;&gt;:lang</title>
<path fill="none" stroke="black" d="M138.54,-144.75C150.31,-124.13 173.55,-89.19 204,-72 255.46,-42.95 427.43,-27.59 509.15,-21.78"/>
<polygon fill="black" stroke="black" points="509.86,-25.24 519.59,-21.06 509.37,-18.26 509.86,-25.24"/>
</g>
<!-- :server&#45;&gt;:lang -->
<g id="edge21" class="edge">
<title>:server&#45;&gt;:lang</title>
<path fill="none" stroke="black" d="M215.16,-360.11C222.32,-341.57 235.19,-311.34 251,-288 324.52,-179.41 347.79,-151.6 452,-72 472.24,-56.54 497.64,-43.23 517.9,-33.82"/>
<polygon fill="black" stroke="black" points="519.44,-36.97 527.1,-29.65 516.55,-30.59 519.44,-36.97"/>
</g>
<!-- :server&#45;&gt;:messenger -->
<g id="edge22" class="edge">
<title>:server&#45;&gt;:messenger</title>
<path fill="none" stroke="black" d="M232.55,-362.67C249.04,-352.63 271.33,-339.06 289.78,-327.83"/>
<polygon fill="black" stroke="black" points="291.76,-330.72 298.48,-322.53 288.12,-324.74 291.76,-330.72"/>
</g>
<!-- :server&#45;&gt;:util -->
<g id="edge24" class="edge">
<title>:server&#45;&gt;:util</title>
<path fill="none" stroke="black" stroke-dasharray="1,5" d="M195.12,-360.56C176.91,-337.85 145.78,-294.83 133,-252 127,-231.91 126.52,-208.13 127.39,-190.2"/>
<polygon fill="black" stroke="black" points="130.89,-190.35 128.05,-180.14 123.9,-189.89 130.89,-190.35"/>
</g>
<!-- :transfer -->
<g id="node9" class="node">
<title>:transfer</title>
<ellipse fill="#ff7043" stroke="black" cx="193" cy="-234" rx="51.19" ry="18"/>
<text text-anchor="middle" x="193" y="-230.3" font-family="Times,serif" font-size="14.00">:transfer</text>
</g>
<!-- :server&#45;&gt;:transfer -->
<g id="edge23" class="edge">
<title>:server&#45;&gt;:transfer</title>
<path fill="none" stroke="black" stroke-dasharray="1,5" d="M207.07,-359.87C204.34,-335.67 199.33,-291.21 196.09,-262.39"/>
<polygon fill="black" stroke="black" points="199.53,-261.73 194.94,-252.19 192.58,-262.52 199.53,-261.73"/>
</g>
<!-- :transfer&#45;&gt;:lang -->
<g id="edge25" class="edge">
<title>:transfer&#45;&gt;:lang</title>
<path fill="none" stroke="black" d="M194.57,-215.99C198.62,-182.7 212.5,-108.98 258,-72 295.91,-41.19 436.91,-27.06 509.38,-21.72"/>
<polygon fill="black" stroke="black" points="509.83,-25.2 519.55,-21 509.33,-18.22 509.83,-25.2"/>
</g>
<!-- :jdbc&#45;adapter -->
<g id="node10" class="node">
<title>:jdbc&#45;adapter</title>
<ellipse fill="#ff7043" stroke="black" cx="744" cy="-306" rx="72.29" ry="18"/>
<text text-anchor="middle" x="744" y="-302.3" font-family="Times,serif" font-size="14.00">:jdbc&#45;adapter</text>
</g>
<!-- :jdbc&#45;adapter&#45;&gt;:api -->
<g id="edge26" class="edge">
<title>:jdbc&#45;adapter&#45;&gt;:api</title>
<path fill="none" stroke="black" d="M744,-287.85C744,-250.83 744,-163.18 744,-118.39"/>
<polygon fill="black" stroke="black" points="747.5,-118.23 744,-108.23 740.5,-118.23 747.5,-118.23"/>
</g>
<!-- :jdbc&#45;adapter&#45;&gt;:lang -->
<g id="edge27" class="edge">
<title>:jdbc&#45;adapter&#45;&gt;:lang</title>
<path fill="none" stroke="black" d="M754.39,-288.16C778.62,-246.54 832.96,-137.43 781,-72 758.41,-43.56 656.19,-28.99 596.57,-22.79"/>
<polygon fill="black" stroke="black" points="596.61,-19.28 586.31,-21.77 595.92,-26.25 596.61,-19.28"/>
</g>
<!-- :jdbc&#45;adapter&#45;&gt;:impl -->
<g id="edge28" class="edge">
<title>:jdbc&#45;adapter&#45;&gt;:impl</title>
<path fill="none" stroke="black" stroke-dasharray="1,5" d="M727.87,-288.23C710.62,-270.31 682.43,-241.09 658,-216 648.21,-205.94 637.34,-194.85 628.08,-185.43"/>
<polygon fill="black" stroke="black" points="630.56,-182.95 621.05,-178.28 625.56,-187.86 630.56,-182.95"/>
</g>
<!-- :jdbc&#45;adapter&#45;&gt;:record -->
<g id="edge29" class="edge">
<title>:jdbc&#45;adapter&#45;&gt;:record</title>
<path fill="none" stroke="black" stroke-dasharray="1,5" d="M698.22,-292.08C653.46,-279.45 585.72,-260.32 541.17,-247.75"/>
<polygon fill="black" stroke="black" points="542.05,-244.36 531.48,-245.01 540.15,-251.1 542.05,-244.36"/>
</g>
<!-- :lang&#45;jackson -->
<g id="node11" class="node">
<title>:lang&#45;jackson</title>
<polygon fill="#ff7043" stroke="black" points="1165,-540 1055,-540 1055,-504 1165,-504 1165,-540"/>
<text text-anchor="middle" x="1110" y="-518.3" font-family="Times,serif" font-size="14.00">:lang&#45;jackson</text>
</g>
<!-- :lang&#45;jackson&#45;&gt;:lang -->
<g id="edge30" class="edge">
<title>:lang&#45;jackson&#45;&gt;:lang</title>
<path fill="none" stroke="black" d="M1110,-503.95C1110,-477.29 1110,-424.11 1110,-379 1110,-379 1110,-379 1110,-161 1110,-98.8 1059.21,-96.41 1002,-72 929.56,-41.08 694.76,-26.07 596.68,-21.02"/>
<polygon fill="black" stroke="black" points="596.68,-17.52 586.52,-20.51 596.33,-24.51 596.68,-17.52"/>
</g>
<!-- :rdbms&#45;framework -->
<g id="node12" class="node">
<title>:rdbms&#45;framework</title>
<polygon fill="#ff7043" stroke="black" points="924.5,-540 775.5,-540 775.5,-504 924.5,-504 924.5,-540"/>
<text text-anchor="middle" x="850" y="-518.3" font-family="Times,serif" font-size="14.00">:rdbms&#45;framework</text>
</g>
<!-- :rdbms&#45;framework&#45;&gt;:api -->
<g id="edge31" class="edge">
<title>:rdbms&#45;framework&#45;&gt;:api</title>
<path fill="none" stroke="black" d="M906.46,-503.97C960.54,-483.75 1034,-444.27 1034,-379 1034,-379 1034,-379 1034,-233 1034,-122.17 861.04,-97.83 782.27,-92.5"/>
<polygon fill="black" stroke="black" points="782,-88.97 771.81,-91.86 781.58,-95.96 782,-88.97"/>
</g>
<!-- :rdbms&#45;framework&#45;&gt;:lang -->
<g id="edge32" class="edge">
<title>:rdbms&#45;framework&#45;&gt;:lang</title>
<path fill="none" stroke="black" d="M924.54,-505.77C989.03,-487.73 1072,-450.6 1072,-379 1072,-379 1072,-379 1072,-161 1072,-62.76 721.64,-30.09 596.65,-21.56"/>
<polygon fill="black" stroke="black" points="596.86,-18.07 586.65,-20.9 596.4,-25.06 596.86,-18.07"/>
</g>
<!-- :rdbms&#45;framework&#45;&gt;:impl -->
<g id="edge33" class="edge">
<title>:rdbms&#45;framework&#45;&gt;:impl</title>
<path fill="none" stroke="black" stroke-dasharray="1,5" d="M894.07,-503.98C909.55,-495.62 925.26,-483.85 934,-468 941.73,-453.99 939.09,-447.17 934,-432 887.78,-294.36 718.22,-209.18 642.71,-177.29"/>
<polygon fill="black" stroke="black" points="643.7,-173.91 633.12,-173.32 641.02,-180.38 643.7,-173.91"/>
</g>
<!-- :rdbms&#45;framework&#45;&gt;:record -->
<g id="edge34" class="edge">
<title>:rdbms&#45;framework&#45;&gt;:record</title>
<path fill="none" stroke="black" stroke-dasharray="1,5" d="M775.25,-521.68C676.01,-520.81 508.75,-512.53 470,-468 418.88,-409.26 458.69,-308.18 482.07,-260.86"/>
<polygon fill="black" stroke="black" points="485.22,-262.37 486.63,-251.87 478.98,-259.2 485.22,-262.37"/>
</g>
<!-- :rdbms&#45;framework&#45;&gt;:util -->
<g id="edge35" class="edge">
<title>:rdbms&#45;framework&#45;&gt;:util</title>
<path fill="none" stroke="black" stroke-dasharray="1,5" d="M775.37,-518.16C614.19,-510.41 241.21,-483.27 156,-396 101.81,-340.5 113.89,-238.5 123.61,-189.99"/>
<polygon fill="black" stroke="black" points="127.09,-190.46 125.74,-179.95 120.24,-189 127.09,-190.46"/>
</g>
<!-- :repl -->
<g id="node13" class="node">
<title>:repl</title>
<ellipse fill="#ff7043" stroke="black" cx="742" cy="-450" rx="32.49" ry="18"/>
<text text-anchor="middle" x="742" y="-446.3" font-family="Times,serif" font-size="14.00">:repl</text>
</g>
<!-- :rdbms&#45;framework&#45;&gt;:repl -->
<g id="edge36" class="edge">
<title>:rdbms&#45;framework&#45;&gt;:repl</title>
<path fill="none" stroke="black" stroke-dasharray="1,5" d="M823.58,-503.88C807.67,-493.56 787.39,-480.42 771.03,-469.81"/>
<polygon fill="black" stroke="black" points="772.69,-466.72 762.4,-464.22 768.88,-472.6 772.69,-466.72"/>
</g>
<!-- :repl&#45;&gt;:api -->
<g id="edge37" class="edge">
<title>:repl&#45;&gt;:api</title>
<path fill="none" stroke="black" d="M761.91,-435.27C789.64,-414.79 838.64,-373.33 858,-324 878.86,-270.87 851.53,-189.12 820,-144 813.56,-134.78 791.47,-119.82 772.76,-108.14"/>
<polygon fill="black" stroke="black" points="774.55,-105.13 764.2,-102.87 770.88,-111.09 774.55,-105.13"/>
</g>
<!-- :repl&#45;&gt;:lang -->
<g id="edge38" class="edge">
<title>:repl&#45;&gt;:lang</title>
<path fill="none" stroke="black" d="M769.67,-440.5C835.5,-418.36 996,-352.34 996,-235 996,-235 996,-235 996,-161 996,-77.58 707.51,-36.32 596.14,-23.5"/>
<polygon fill="black" stroke="black" points="596.26,-20 585.94,-22.35 595.48,-26.95 596.26,-20"/>
</g>
<!-- :repl&#45;&gt;:impl -->
<g id="edge39" class="edge">
<title>:repl&#45;&gt;:impl</title>
<path fill="none" stroke="black" stroke-dasharray="1,5" d="M734.92,-432.18C726.79,-413.7 712.43,-383.53 696,-360 683.57,-342.2 674.18,-342.6 663,-324 649.08,-300.84 626.1,-229.08 614.01,-189.64"/>
<polygon fill="black" stroke="black" points="617.3,-188.45 611.04,-179.9 610.61,-190.49 617.3,-188.45"/>
</g>
<!-- :repl&#45;&gt;:messenger -->
<g id="edge41" class="edge">
<title>:repl&#45;&gt;:messenger</title>
<path fill="none" stroke="black" stroke-dasharray="1,5" d="M713.08,-441.75C675.94,-432.24 609.65,-414.57 554,-396 488.21,-374.05 413.6,-344.25 367.66,-325.32"/>
<polygon fill="black" stroke="black" points="368.89,-322.03 358.31,-321.45 366.21,-328.5 368.89,-322.03"/>
</g>
<!-- :repl&#45;&gt;:record -->
<g id="edge40" class="edge">
<title>:repl&#45;&gt;:record</title>
<path fill="none" stroke="black" stroke-dasharray="1,5" d="M725.09,-434.29C682.83,-397.53 572.38,-301.44 521.87,-257.51"/>
<polygon fill="black" stroke="black" points="523.86,-254.6 514.02,-250.67 519.27,-259.88 523.86,-254.6"/>
</g>
<!-- :repl&#45;&gt;:server -->
<g id="edge42" class="edge">
<title>:repl&#45;&gt;:server</title>
<path fill="none" stroke="black" stroke-dasharray="1,5" d="M710.65,-444.88C622.02,-433.24 369.01,-400.01 259.99,-385.7"/>
<polygon fill="black" stroke="black" points="260.27,-382.2 249.9,-384.37 259.36,-389.14 260.27,-382.2"/>
</g>
<!-- :rest -->
<g id="node14" class="node">
<title>:rest</title>
<ellipse fill="#ff7043" stroke="black" cx="511" cy="-450" rx="32.49" ry="18"/>
<text text-anchor="middle" x="511" y="-446.3" font-family="Times,serif" font-size="14.00">:rest</text>
</g>
<!-- :rest&#45;&gt;:api -->
<g id="edge43" class="edge">
<title>:rest&#45;&gt;:api</title>
<path fill="none" stroke="black" stroke-dasharray="1,5" d="M543.26,-447.37C609.53,-442.06 760.2,-419.54 825,-324 871.52,-255.41 801.42,-157.37 764.43,-113.6"/>
<polygon fill="black" stroke="black" points="766.91,-111.12 757.73,-105.84 761.61,-115.69 766.91,-111.12"/>
</g>
<!-- :rest&#45;&gt;:impl -->
<g id="edge48" class="edge">
<title>:rest&#45;&gt;:impl</title>
<path fill="none" stroke="black" stroke-dasharray="1,5" d="M516.66,-431.97C532.6,-383.98 577.96,-247.41 597.2,-189.49"/>
<polygon fill="black" stroke="black" points="600.54,-190.54 600.37,-179.94 593.9,-188.33 600.54,-190.54"/>
</g>
<!-- :rest&#45;&gt;:messenger -->
<g id="edge44" class="edge">
<title>:rest&#45;&gt;:messenger</title>
<path fill="none" stroke="black" stroke-dasharray="1,5" d="M492.26,-435.12C477.92,-424.47 457.66,-409.37 440,-396 410.26,-373.49 376.44,-347.5 353.02,-329.44"/>
<polygon fill="black" stroke="black" points="354.95,-326.5 344.89,-323.16 350.67,-332.04 354.95,-326.5"/>
</g>
<!-- :rest&#45;&gt;:record -->
<g id="edge45" class="edge">
<title>:rest&#45;&gt;:record</title>
<path fill="none" stroke="black" stroke-dasharray="1,5" d="M509.8,-431.85C507.2,-394.83 501.06,-307.18 497.92,-262.39"/>
<polygon fill="black" stroke="black" points="501.4,-261.96 497.21,-252.23 494.42,-262.45 501.4,-261.96"/>
</g>
<!-- :rest&#45;&gt;:server -->
<g id="edge46" class="edge">
<title>:rest&#45;&gt;:server</title>
<path fill="none" stroke="black" stroke-dasharray="1,5" d="M481.49,-442.16C429.05,-430.01 319.22,-404.55 256.18,-389.94"/>
<polygon fill="black" stroke="black" points="256.64,-386.45 246.11,-387.6 255.06,-393.27 256.64,-386.45"/>
</g>
<!-- :rest&#45;&gt;:jdbc&#45;adapter -->
<g id="edge47" class="edge">
<title>:rest&#45;&gt;:jdbc&#45;adapter</title>
<path fill="none" stroke="black" stroke-dasharray="1,5" d="M527.95,-434.54C550.34,-415.87 591.47,-383.03 630,-360 651.61,-347.09 676.89,-335.05 698.14,-325.72"/>
<polygon fill="black" stroke="black" points="699.81,-328.82 707.6,-321.63 697.03,-322.39 699.81,-328.82"/>
</g>
</g>
</svg>
